<svg xmlns="http://www.w3.org/2000/svg" viewBox="0 0 136.65 136.65">
  <path d="M68.35 0A68.33 68.33 0 1 1 0 68.05 68.28 68.28 0 0 1 68.35 0zM23.27 68.33a45.06 45.06 0 1 0 45.07-45.07 45 45 0 0 0-45.07 45.07zM61.83 6.74h.07L62 7q2.44 6.48 4.9 13c.1.27.22.39.53.36a16.84 16.84 0 0 1 1.74 0c.36 0 .5-.11.62-.44 1.47-4.37 3-8.74 4.44-13.11 0-.09.07-.18.11-.27q.12 6.84.23 13.68h3c-.09-6-.19-11.92-.29-17.88h-4.01a.41.41 0 0 0-.46.35l-4.18 13.09c-.07.22-.15.43-.25.71-.08-.21-.14-.35-.19-.49q-2.43-6.55-4.85-13.12a.48.48 0 0 0-.55-.38c-1.17 0-2.35 0-3.52.06h-.51q.15 9 .3 17.85h3c-.06-4.57-.16-9.12-.23-13.67zm46.8 34.66l16.65-8.28-2.14-2.36-12.4 6.62v-.06l7.83-11.73-2.14-2.4-12.59 6.44v-.06q4-5.76 8-11.51l-2.13-2.36-.25.37-5.65 8.62q-2 3.12-4.07 6.24c-.07.1-.13.31-.08.37.67.78 1.35 1.54 2 2.3l12.63-6.4.05.06L106.49 39zm-79.3-1.84a.6.6 0 0 0 .13-.08c2.09-2.12 4.2-4.22 6.25-6.39a10.36 10.36 0 0 0 1.48-2.24 4.3 4.3 0 0 0 .44-2.67 4.84 4.84 0 0 0-2.08-3.24 4.08 4.08 0 0 0-4.14-.7c-.28.11-.55.26-.85.41a1.53 1.53 0 0 1 .06-.25 4.22 4.22 0 0 0-3-5.46 4.52 4.52 0 0 0-1.72-.07 5.26 5.26 0 0 0-2.9 1.64c-2.11 2.1-4.18 4.21-6.27 6.32-.05.05-.1.12-.15.18z"/>
  <path d="M25.42 68.14A42.84 42.84 0 1 1 68.17 111a42.82 42.82 0 0 1-42.75-42.86zm84.17-.72C109.42 44.9 90.36 26.84 69 26.86v40.56zm-42.09 1.9H26.92c.48 22.9 19.89 40.26 40.58 40.17zM29.64 35.55l-3.79-4 .1-.11 3.65-3.69a3.25 3.25 0 0 1 1.85-1.08 2.75 2.75 0 0 1 1 0A2.81 2.81 0 0 1 34 31.15a6.75 6.75 0 0 1-.56.64zM24.1 30l-3.49-3.59a2.67 2.67 0 0 0 .45-.33c1.07-1.09 2.11-2.19 3.19-3.27 1.34-1.33 2.64-1.24 3.89.39a2.24 2.24 0 0 1-.28 3c-.95 1-1.95 2-2.92 3z"/>
</svg>
