<svg xmlns="http://www.w3.org/2000/svg" viewBox="0 0 132.71 118.62">
  <path d="M66.35 0C29.71 0 0 26.55 0 59.31s29.71 59.31 66.35 59.31 66.36-26.55 66.36-59.31S103 0 66.35 0zm-2.9 97.78c0 9.87-6.39 12.22-10.45 12.22-5.81 0-15.91-4.18-24-12.31C18.79 87.5 12.81 74.55 11.92 62c-1-20.2 4.84-25.27 8-25.27s6.63 3 8.24 8.82 2.67 12.66 2.67 12.66c1.17 7.48 2.83 13 6.86 18 6 7.44 10.66 7.79 18.31 10.41s7.45 4.54 7.45 11.16zm0-22.52c0 3.18-1.89 4.65-4 4.65s-7.58.22-11.89-3.1c-5.34-4-7.63-9.87-9.65-16.85a43.74 43.74 0 0 1-1.81-12.58c0-6.77 3.06-8.66 6.59-8.66h14.05c3.36 0 6.76 1.55 6.76 6.89zm.17-50.72c0 4.44-2.45 6.68-6.16 6.68H36.83c-4.4 0-5.95-2.89-7.45-4.87s-3.88-1.72-3.88-2.54S30.8 17 40.49 12s16.16-5.3 17.28-5.3a6.83 6.83 0 0 1 5.9 7.11zM69 13.79a6.83 6.83 0 0 1 5.9-7.11c1.13 0 7.59.26 17.28 5.25s15 11 15 11.85-2.37.56-3.88 2.55-3.06 4.86-7.45 4.86H75.19c-3.7 0-6.19-2.19-6.19-6.67zm25.8 46.15c-2 7-4.31 12.84-9.65 16.84-4.31 3.32-9.74 3.11-11.89 3.11s-4.05-1.47-4.05-4.66V45.59c0-5.35 3.4-6.9 6.76-6.9H90c3.53 0 6.59 1.9 6.59 8.66a43.82 43.82 0 0 1-1.79 12.59zm8.76 37.77c-8.13 8.13-18.24 12.31-24 12.31-4.07 0-10.45-2.32-10.45-12.19 0-6.62-.24-8.48 7.43-11.15s12.33-3 18.35-10.46c4-5 5.68-10.51 6.85-18 0 0 1-6.75 2.67-12.66s5.11-8.82 8.25-8.82 8.94 5.07 8 25.28c-.96 12.58-6.94 25.53-17.1 35.69z" fill-rule="evenodd"/>
</svg>
