<svg id="Layer_1" data-name="Layer 1" xmlns="http://www.w3.org/2000/svg" viewBox="0 0 50 50"><title>capra</title><path d="M28.53,21.51c0-.68.36-.94.83-.94,2.62,0,5.23,0,7.85,0a2.29,2.29,0,0,1,1.74.88c.11.13.22.28.4.51,0-.24,0-.36,0-.49,0-.62.25-.91.79-.91h4.54c1.06,0,2.12,0,3.18,0A2.42,2.42,0,0,1,50,23.17c0,1.76,0,3.53,0,5.29,0,.86-.21,1.11-.9,1.11H41.77c-1.54,0-2.77-1.55-2.69-3.43,0-.27.09-.55.11-.85a2.89,2.89,0,0,1-1.89,1.16L38.91,28c.45.45.51,1,.13,1.35a.84.84,0,0,1-.5.19c-1,0-1.94,0-2.91,0a1.24,1.24,0,0,1-.87-.49l-1.84-1.89V28.5c0,.82-.22,1.08-.87,1.08l-3.55,0Zm.67,7.3h3.12V25.69h.44c1.42,0,2.83,0,4.24,0a2,2,0,0,0,.86-.19,2.23,2.23,0,0,0,1.08-2.78,2.05,2.05,0,0,0-1.78-1.41H29.47l-.28,0Zm20.18,0V23.25c0-1.18-.61-1.94-1.58-1.94H40.29l-.31,0v1.8h5.78c.47,0,.53.1.46.74H42.06a2.61,2.61,0,0,0-.73.09,2.56,2.56,0,0,0-1.64,2.67,2.34,2.34,0,0,0,2.06,2.19h7.63Zm-10.77,0,0-.12-2.36-2.32a.47.47,0,0,0-.29-.07h-2.7a.92.92,0,0,0-.22.06c.78.81,1.53,1.58,2.29,2.34a.38.38,0,0,0,.24.11Zm.94-4.37.51-.59-.38-.1Z"/><path d="M32.32,24V23h2.44c.27,0,.54,0,.81,0s.39.18.39.5-.15.47-.37.48C34.51,24,33.43,24,32.32,24Z"/><path d="M46.24,25.7v1.15h-1c-.69,0-1.38,0-2.06,0a.78.78,0,0,1-.55-.3A.54.54,0,0,1,43,25.7Z"/><path d="M18,25.69V28.8h3.11V25.68h.45c1.41,0,2.82,0,4.24,0a2.13,2.13,0,0,0,.85-.18,2.25,2.25,0,0,0,1.09-2.79,2.07,2.07,0,0,0-1.78-1.41H18.24l-.29,0v2.6h-.81v-.75c0-1.09-.63-1.87-1.53-1.87H7.75v1.82h5.77c.48,0,.57.15.44.74H9.84A2.63,2.63,0,0,0,9.1,24a2.55,2.55,0,0,0-1.64,2.66,2.32,2.32,0,0,0,2.09,2.2h7.61V25.69Zm10.49.94M6.91,26.57H3.19v-3c0-.48.09-.58.47-.58H6.9v-1.8l-.28,0c-1.68,0-3.37,0-5,0a.69.69,0,0,0-.73.46,2.64,2.64,0,0,0-.22.92c0,1.95,0,3.91,0,5.86,0,.12,0,.24,0,.35H6.91Zm21-1.21a2.62,2.62,0,0,1-1.89,1.08s-3.47,0-4.37,0v2c0,.81-.22,1.07-.87,1.07a23.89,23.89,0,0,1-2.54,0c-.93-.11-1.84.07-2.76,0s-1.88,0-2.81,0-1.88,0-2.82,0a2.72,2.72,0,0,1-2.34-1.07c-.11.81-.28,1-.91,1H.89c-.68,0-.89-.24-.89-1.08V22.45a2.17,2.17,0,0,1,.53-1.59,1.47,1.47,0,0,1,.87-.45c1.78,0,3.56,0,5.35,0a1.64,1.64,0,0,1,.54.18s.1.07.15.07L13,20.56c.78,0,1.56,0,2.34,0a2.18,2.18,0,0,1,2,.95,2,2,0,0,0,.05-.22c.12-.53.31-.72.77-.72,2.62,0,5.24,0,7.86,0A2.89,2.89,0,0,1,28.11,22,3.3,3.3,0,0,1,28,25.36Zm-24.13.47H6.89a3.33,3.33,0,0,1,.94-1.92c-.25-.1-.45-.27-.66-.27-.66,0-1.32.05-2,.08-.45,0-.89,0-1.36,0Z"/><path d="M14,25.69V26.8a2.23,2.23,0,0,1-.23,0H11a1,1,0,0,1-.33,0,.53.53,0,0,1-.32-.6c0-.3.18-.48.42-.48C11.81,25.68,12.9,25.69,14,25.69Z"/><path d="M21.09,23.94V23h2.44c.27,0,.54,0,.81,0s.39.18.39.51-.15.47-.38.47Z"/></svg>