<svg xmlns="http://www.w3.org/2000/svg" viewBox="0 0 126.54 110.46">
  <path d="M63.24 110.45c-10.37-.07-20.69-.6-30.78-3.29C17.87 103.27 8.82 93.81 4.6 79.47a117 117 0 0 1-4.39-39.9C.65 31.89 2.43 24.47 6.93 18c5.43-7.84 13.3-12.07 22.25-14.17A142.15 142.15 0 0 1 49.72.64 162.33 162.33 0 0 1 71.66.19c10.53.55 21.07 1.49 31.1 5.31 12.31 4.68 20.2 13.25 22.36 26.28a101.46 101.46 0 0 1-5 52.4c-4.78 13-14.65 20.36-27.89 23.45a123 123 0 0 1-28.99 2.82zM119 45.57c-.2-2.08-.43-5.85-.93-9.59-1.89-14-9.37-23.6-22.94-28.13a81 81 0 0 0-22.26-3.73C59.77 3.54 46.74 3.54 34 7c-10.34 2.82-18.5 8.44-22.81 18.68a48.57 48.57 0 0 0-3.55 18.37C7.48 55.8 8.59 67.43 12 78.73c4 13 12.1 21.93 25.63 25.27 15.79 3.9 31.69 3.77 47.61.89 15.68-2.84 25.32-12.2 29.57-27.42 2.78-9.89 3.83-19.99 4.19-31.9z"/>
  <path d="M63.23 11.28c7.73-.19 15.41.24 22.89 2.39 14.54 4.19 22.6 14.66 23.51 29.77a86 86 0 0 1-3 29.12C102.49 87 93.18 95.85 78.16 98.3c-11.29 1.84-22.57 2-33.73-.83C31 94.12 23.29 85 19.67 72a82.54 82.54 0 0 1-2.41-31.44c1.5-13.76 9.9-23.35 23.3-27a78.72 78.72 0 0 1 22.67-2.28zm22.27 24.5h.5c0 3.48-.11 7 0 10.43a35.82 35.82 0 0 1-4.5 18.49Q74 78.77 66.33 92.81c-1.16 2.15-.79 3 1.61 2.91a75.41 75.41 0 0 0 9-.93C87.56 93 95.78 87.67 100.1 77.62a62.22 62.22 0 0 0 3.5-40.75 25.14 25.14 0 0 0-14.25-17.22c-3.19-1.51-3.85-1.13-3.85 2.35.01 4.57 0 9.17 0 13.78zm-45-10.67h.43v-3.63c0-2.69-.67-3.2-3.07-2.14C29.6 23 24.56 29.35 22.51 38.06c-2.59 11-1.66 21.94 1.3 32.69 5.18 18.79 18.05 24.46 34.86 25 2.09.07 2.56-.9 1.56-2.74-4.7-8.71-9.38-17.42-14.15-26.09-3.67-6.68-5.92-13.64-5.62-21.41.26-6.8.05-13.61.05-20.4zm23-9.8l-14.75 1.13c-2.06.15-2.57 1.07-1.81 3C51.8 31.81 56.6 44.2 61.48 56.56c.26.65 1.14 1.58 1.61 1.51A2.89 2.89 0 0 0 65 56.54c1.25-2.82 2.33-5.73 3.46-8.61q5.49-14 11-28.07c1-2.6.75-3.13-1.93-3.42-4.67-.44-9.26-.76-14.02-1.13z"/>
</svg>
