<svg xmlns="http://www.w3.org/2000/svg" viewBox="0 0 155.19 51.31">
  <path d="M131.19 36.2l-1.92-4.09s-6.08 2.13-10.08 0S98.24 15.93 90 10.31 78.31 5.12 78.31 5.12h-1.43s-3.4-.43-11.66 5.19S40 30 36 32.11s-10.08 0-10.08 0L24 36.2l13.2 7.66 36.53.54v.06h3.63v-.05l40.64-.55zm-32.1-3.58a20.14 20.14 0 0 1-3.58 5.28c-1.19 1.11-14.39.77-14.39.77H69.68c-4 0-9.29-.14-10-.82a19.82 19.82 0 0 1-3.57-5.28c-.09-.68-.52-1.53 5.19-5.71s11.75-8.85 13.28-9.45a7.26 7.26 0 0 1 2.6-.55H78a7.22 7.22 0 0 1 2.6.55c1.53.6 7.58 5.28 13.28 9.45s5.29 5.08 5.21 5.76z"/>
  <path d="M131.19 36.08L129.27 32s-6.08 2.12-10.08 0S98.24 15.82 90 10.2 78.31 5 78.31 5h-1.43s-3.4-.42-11.66 5.2S40 29.87 36 32s-10.08 0-10.08 0L24 36.08l13.2 7.67 36.53.54v.05h3.63v-.05l40.64-.54zm-32.1-3.57a20.14 20.14 0 0 1-3.58 5.28c-1.19 1.1-14.39.76-14.39.76H69.68v.05c-4 0-9.29-.13-10-.81a19.82 19.82 0 0 1-3.57-5.28c-.11-.68-.52-1.51 5.19-5.71s11.75-8.8 13.28-9.45a7 7 0 0 1 2.6-.55H78a7 7 0 0 1 2.6.55c1.53.6 7.58 5.28 13.28 9.45s5.29 5.03 5.21 5.71z"/>
  <path d="M77.6 0C34.74 0 0 11.49 0 25.65s34.74 25.66 77.6 25.66 77.59-11.49 77.59-25.66S120.45 0 77.6 0zm0 41.14c-31.88 0-60.45-10.14-60.45-19.33 0-8.1 22.91-14.84 49.59-16.3 7.15-4.51 10.14-4.2 10.14-4.2h1.43s3-.38 10.16 4.2c26.68 1.46 49.58 8.2 49.58 16.3 0 9.19-28.57 19.33-60.45 19.33z"/>
</svg>
