<svg xmlns="http://www.w3.org/2000/svg" viewBox="0 0 113.03 101.89">
  <path d="M.19 55.15c-.87-5.51 1.67-9.85 5.43-13.82 11-11.6 22-23.11 34.67-32.88a96.37 96.37 0 0 1 11-7c3.46-2 7.09-1.77 10.67 0a71 71 0 0 1 17.51 12.49c9.85 9.35 19.43 19 29 28.59A14.32 14.32 0 0 1 113 54.14c-.13 1.78 0 3.58-.14 5.36-.09.84-.44 2-1 2.34s-1.69-.37-2.35-.89c-8.62-6.72-17.09-13.64-25.83-20.2a91.22 91.22 0 0 0-19.82-11.49 18.21 18.21 0 0 0-14.73 0C40.36 33 32.54 38.22 25 43.91c-7.23 5.48-14.18 11.32-21.29 17A11.76 11.76 0 0 1 1.33 62a10.78 10.78 0 0 1-1.1-2.59 33.21 33.21 0 0 1-.04-4.26z"/>
  <path d="M112.85 95.38a38.35 38.35 0 0 1 0 4.41 3 3 0 0 1-1.13 2c-.4.23-1.44-.33-2-.78C102.51 95.37 95.6 89.33 88.18 84c-6.82-4.89-14.11-9.16-21.35-13.45-6.75-4-13.61-3.64-20.6-.11-11 5.58-20.89 12.89-30.55 20.5-4.15 3.27-8.13 6.77-12.25 10.06a3 3 0 0 1-2.21.74c-.47-.12-.89-1.23-1-1.94-.86-7.39.5-13.8 6.17-19.52 11-11 21.54-22.36 33.87-31.87a102 102 0 0 1 11.15-7.15c3.31-1.93 6.79-1.74 10.24-.06a73.42 73.42 0 0 1 18.24 13c9.65 9.15 19 18.59 28.42 28a14.73 14.73 0 0 1 4.54 13.18z"/>
</svg>
