<svg xmlns="http://www.w3.org/2000/svg" viewBox="0 0 121.27 121.27">
  <path d="M61.64 96.56a47.52 47.52 0 0 0 20.21 11.71c-13.52.47-25.95-2.59-36.35-11.7S30.93 75 29.38 61.05c-7 6-10.71 13.71-14.84 21.26-1.81-14.23-.17-27.74 8.92-39.46s22.29-16 36.95-17.78a42.46 42.46 0 0 0-9.79-7.38c-3.31-1.88-6.92-3-10.43-4.48 13.52-.32 26 2.66 36.42 11.79s14.6 21.54 16.12 35.68c7-6.25 10.8-13.86 14.86-21.4 1.79 14.25.15 27.72-8.87 39.38S76.56 94.7 61.64 96.56zM76.2 64.05c0-13.3-4.19-25.17-11.56-34.25-3.75-4.61-3-6.44-7.92-.08-16.18 21-13.41 45.79 3 64.85 1.31 1.52 2.09 1.54 3.41 0 8.3-9.46 12.97-20.37 13.07-30.52z"/>
  <path d="M60.64 121.27a60.64 60.64 0 1 1 60.63-60.63 60.7 60.7 0 0 1-60.63 60.63zm0-118.38a57.75 57.75 0 1 0 57.74 57.75A57.82 57.82 0 0 0 60.64 2.89z"/>
</svg>
