<svg id="Layer_1" data-name="Layer 1" xmlns="http://www.w3.org/2000/svg" viewBox="0 0 50 50"><defs><style>.cls-1{fill:#000;}</style></defs><title>Foton</title><path class="cls-1" d="M19.55,36.92a7.37,7.37,0,0,1,.62-1.18q5.26-7,10.56-13.89c1.85-2.43,3.69-4.87,5.57-7.29a2.33,2.33,0,0,1,1-.66,1.07,1.07,0,0,1,1.27.38c1.22,1.53,2.45,3,3.65,4.59a1.57,1.57,0,0,1,0,2.32L26.26,41.8a2.89,2.89,0,0,1-.59.62,1.65,1.65,0,0,1-2.34-.25c-1.15-1.4-2.26-2.82-3.36-4.25A4.49,4.49,0,0,1,19.55,36.92Z"/><path class="cls-1" d="M28.58,13.87c1.13,0,2.25,0,3.38,0a1.33,1.33,0,0,1,1.33.69A1.31,1.31,0,0,1,33.13,16q-6.66,8.7-13.33,17.4a2.62,2.62,0,0,1-1,.77,1.75,1.75,0,0,1-2.2-.56l-3.12-4.19a1.51,1.51,0,0,1,0-2.1c.86-1.14,1.74-2.27,2.62-3.4C18.42,21,20.71,18,23,15a2.74,2.74,0,0,1,2.47-1.17C26.49,13.9,27.54,13.87,28.58,13.87Z"/><path class="cls-1" d="M11.71,26a1.58,1.58,0,0,1-1.34-.61Q8.66,23.14,7,20.89a1.16,1.16,0,0,1,0-1.64c1.12-1.5,2.24-3,3.34-4.48a2.14,2.14,0,0,1,1.85-.9c2.29,0,4.59,0,6.88,0a1.39,1.39,0,0,1,1.35,2.06,4.86,4.86,0,0,1-.49.78l-6.48,8.4A2.37,2.37,0,0,1,11.71,26Z"/><path class="cls-1" d="M25,50A25,25,0,1,1,50,25,25,25,0,0,1,25,50ZM25,3.11A21.89,21.89,0,1,0,46.89,25,21.92,21.92,0,0,0,25,3.11Z"/></svg>