<svg xmlns="http://www.w3.org/2000/svg" viewBox="0 0 144.28 71.04">
  <path d="M72.21 12.51c1.41 0 2.86.13 4.39.27l2.11.17 9.53.73.61.05-.08 4.07-.22 10.41-2.14.22-4 .41c-3.32.34-6.76.7-10.12.92h-.76a32 32 0 0 1-3.52-.27l-1.64-.17-6.49-.64-4.2-.42q-.11-5.82-.23-11.64l-.06-3.13 2.87-.19 3.74-.24c3.14-.22 6.39-.45 9.55-.55h.62m0-3.07h-.67c-4.47.13-8.93.52-13.39.81-1.89.12-3.77.26-5.73.4a5 5 0 0 0-.06.67c.13 6.33.27 12.67.38 19 0 .62.26.76.82.81 4.2.4 8.4.84 12.61 1.24 1.81.17 3.63.46 5.44.46h1c4.74-.31 9.46-.87 14.19-1.34 1.6-.15 3.19-.33 4.85-.5.14-6.73.28-13.36.41-20-.44-.06-.75-.11-1.06-.13-4-.31-8-.63-12-.92-2.24-.17-4.49-.46-6.72-.46zM88.33 40.17l-.07 3.06c-.08 3.94-.17 7.88-.24 11.83l-4.61.83c-3.67.66-7.45 1.35-11.18 1.94a2.58 2.58 0 0 1-.42 0 12.45 12.45 0 0 1-2.15-.28l-.47-.08c-3.1-.56-6.26-1.15-9.31-1.72l-3.62-.68Q56.14 49 56 43v-2.76l1.16.11 4.1.42c3.23.35 6.58.7 9.89.93h1a27.87 27.87 0 0 0 3.5-.28l1.35-.13c2.77-.26 5.55-.54 8.32-.82l3-.3m2.48-3.31h-.3c-4.61.45-9.21.92-13.81 1.36-1.53.15-3.08.43-4.6.43h-.78c-4.64-.33-9.27-.89-13.9-1.35-1.5-.15-3-.28-4.52-.42a3.17 3.17 0 0 0-.08.46c.14 6.55.29 13.1.41 19.66 0 .58.3.71.78.8 4.89.9 9.76 1.84 14.65 2.71a17.78 17.78 0 0 0 3.15.42 5.49 5.49 0 0 0 .91-.07c5.82-.93 11.61-2 17.42-3.06.69-.12.9-.39.92-1.08q.16-9.6.39-19.19c0-.21 0-.42-.07-.66zM39.89 14.15l.26 12.7v.3L39 27l-17.53-1.7-4.73-.47-1.09-.11-.65-.07-.12-2.37c-.08-1.46-.15-2.93-.22-4.39a8.22 8.22 0 0 1 0-1.28 3.16 3.16 0 0 1 .12-.61 3.31 3.31 0 0 1 .45-.07c4.15-.35 8.38-.66 12.48-.95l.75-.05c3.59-.26 7.18-.5 10.77-.74h.62M42.13 11h-.38c-4.49.3-9 .59-13.47.91s-8.85.63-13.27 1c-2.18.19-3.1 1.18-3.35 3.38a10.49 10.49 0 0 0-.07 1.71c.13 2.91.3 5.83.44 8.74 0 .5.19.71.7.75 1.24.09 2.48.24 3.71.36l22.23 2.2c1.5.15 3 .28 4.62.43-.14-6.58-.27-13-.4-19.56zM104.13 14.5l1.09.07 5.1.34c4.5.29 9.16.6 13.72 1a25.85 25.85 0 0 1 5.12 1v.17c0 2.36-.08 4.76-.13 7.08v.43l-16.83 1.68-8.32.82.25-12.59m-3-3.26c-.13 6.42-.26 12.74-.39 19.24L132 27.39c0-.34.08-.55.09-.77.06-3.16.15-6.33.18-9.49 0-1.94-.35-2.61-2.22-3.16a29.52 29.52 0 0 0-5.73-1.14c-6.28-.52-12.58-.89-18.87-1.31l-4.29-.28zM15.8 36l.57.05 9.46.94 14.67 1.42q.11 5.84.23 11.69v1.81c-1.44-.35-2.82-.69-4.22-1-5-1.3-10.26-2.79-14.86-5.51a24.67 24.67 0 0 1-4.39-3.47 5 5 0 0 1-1.36-3.58c0-.78-.09-1.55-.14-2.33m-3.29-3.38c.13 2 .27 3.95.37 5.86a8 8 0 0 0 2.3 5.65A28.46 28.46 0 0 0 20.13 48c4.86 2.87 10.24 4.43 15.65 5.84 2.64.68 5.3 1.3 8 2a4.74 4.74 0 0 0 .07-.52q-.19-9.49-.37-19c0-.62-.33-.68-.81-.72l-26-2.6-4.16-.38zM128.17 35.91v.83a7 7 0 0 1-2.1 4.67 22.74 22.74 0 0 1-7 4.89 80.41 80.41 0 0 1-15.8 5.57v-1.88q.06-3.08.13-6.13c0-1.84.09-3.68.12-5.52 6.12-.59 12.3-1.21 18.3-1.8l4.21-.42 2.12-.21m3.3-3.42c-2 .2-3.84.4-5.72.58q-12.18 1.22-24.36 2.4c-.7.06-.86.3-.88 1-.07 4.5-.2 9-.29 13.5v5.76H100.61c6.8-1.63 13.51-3.51 19.8-6.64a25.88 25.88 0 0 0 7.86-5.56 10 10 0 0 0 2.9-6.68c0-1 .19-2 .27-3v-1.26z"/>
  <path d="M143.85 13a8 8 0 0 0-4.67-6.68 24.28 24.28 0 0 0-9.3-2.32c-7.88-.59-15.71-1-23.57-1.61C98 1.78 89.64 1.26 81.33.44a118.15 118.15 0 0 0-20.69 0C53.34 1 46 1.45 38.73 2 29 2.63 19.19 3.29 9.42 4 4.14 4.44 1 7.49.26 12.76A11.63 11.63 0 0 1 0 13.93v3.33a5.27 5.27 0 0 1 .18.86c.33 5.35.62 10.7 1 16.05a75.8 75.8 0 0 0 .76 8.39c.88 4.95 4 8.47 8 11.29A52.82 52.82 0 0 0 25.2 61a309.86 309.86 0 0 0 42 9.46 19.34 19.34 0 0 0 5.93.47q11.87-1.86 23.6-4.21a128.72 128.72 0 0 0 26.81-8c5.13-2.26 10-4.95 14-9 2.73-2.83 4.77-6.06 5.12-10.08.47-5.49.82-11 1.24-16.48a6.43 6.43 0 0 1 .42-1.38v-7.85a3.38 3.38 0 0 1-.47-.93zm-5.72 13v.21l-.57 6.34v1.49c-.1 1.22-.3 2.43-.33 3.65a11.84 11.84 0 0 1-3.45 7.94 30.89 30.89 0 0 1-9.35 6.62c-7.49 3.73-15.49 6-23.58 7.91l-7 1.54a1.07 1.07 0 0 1-.27.06c-6.92 1.21-13.81 2.54-20.74 3.65A15.4 15.4 0 0 1 68 65c-5.81-1-11.62-2.16-17.43-3.23l-.27-.06-6.38-1.43c-3.27-.8-6.43-1.54-9.57-2.35-6.45-1.68-12.85-3.54-18.63-7a33.72 33.72 0 0 1-5.9-4.63 9.62 9.62 0 0 1-2.74-6.72C7 37.3 6.79 35 6.64 32.6l-.4-6.19a1.09 1.09 0 0 1 0-.26c-.17-3.47-.37-6.94-.53-10.41a13.37 13.37 0 0 1 .09-2.1c.29-2.62 1.39-3.8 4-4 5.27-.45 10.54-.82 15.81-1.2s10.69-.73 16-1.09l7-.43c2.34-.17 4.58-.34 6.82-.48 5.32-.34 10.63-.8 15.95-1a84.54 84.54 0 0 1 8.84.56c4.76.35 9.51.73 14.27 1.09l6.82.56 5.11.33c7.49.5 15 .94 22.46 1.56a35.36 35.36 0 0 1 6.82 1.36c2.23.66 2.67 1.45 2.65 3.76-.04 3.75-.14 7.52-.22 11.34z"/>
</svg>
