<svg xmlns="http://www.w3.org/2000/svg" viewBox="0 0 173.67 94.24">
  <path d="M172.5 30.14H1.17s-2.63.29 0 2.82 3.76 3.5 5.36 3.9 47.56.59 67.54 15c4.7 3.38 10 10 10.54 10.83S85.85 64 86.22 64h1.23c.37 0 1-.48 1.61-1.28s5.84-7.5 10.54-10.88c20-14.39 65.93-14.57 67.54-15s2.73-1.37 5.36-3.9 0-2.8 0-2.8zM49.24 28.53a41.94 41.94 0 0 1 75.19 0h5.71a47.13 47.13 0 0 0-86.61 0z"/>
  <path d="M128.59 43.28q.18 1.89.18 3.84a41.94 41.94 0 1 1-83.87 0c0-1.3.07-2.58.18-3.84q-2.53-.64-5.09-1.2a47.12 47.12 0 1 0 94 5 49.43 49.43 0 0 0-.27-5q-2.59.56-5.13 1.2z"/>
</svg>
