<svg xmlns="http://www.w3.org/2000/svg" viewBox="0 0 173.71 23.27">
  <path d="M20 23.16l4.56-9.91c-6.26-1.25-11.4 1.34-13.96 7.3-.88 2.06-1.92 2.9-4.17 2.66A59.37 59.37 0 0 0 0 23.16c.32-.82.51-1.4.77-1.95C3.87 14.65 7 8.11 10.06 1.53A2.17 2.17 0 0 1 12.48 0c2.39.12 4.79 0 7.52 0l-4.12 9.28c3.39-.15 6.59-.25 9.78-.5a2.36 2.36 0 0 0 1.6-1.17c1.12-2.11 2-4.34 3.14-6.46A2.17 2.17 0 0 1 31.87.08C34.5 0 37.15 0 40 0c-.33.84-.54 1.48-.82 2.09-3 6.54-6 13.06-9 19.62a2.09 2.09 0 0 1-2.28 1.45c-2.48-.06-5 0-7.9 0zM79.65.27h8.55c.45 4.57.9 9.11 1.38 14 .63-.53 1-.84 1.42-1.21 4-4 8.07-8 12.17-11.92a4.07 4.07 0 0 1 2.45-1c3.06-.12 6.13 0 9.24 0-2.16 2.25-4.13 4.43-6.24 6.47q-8 7.77-16.17 15.4a4.89 4.89 0 0 1-2.81 1.12 56.22 56.22 0 0 1-7 0c-.54 0-1.45-.66-1.49-1.08A1265.5 1265.5 0 0 1 79.51.87a2.67 2.67 0 0 1 .14-.6zM35.88 22.39c5.79-5.44 11.46-11 17.41-16.3C58.73 1.27 65.39-.17 72.52.24a12.51 12.51 0 0 1 1.26.25L68.2 15.63c-.75 2-1.44 4-2.33 6a2.44 2.44 0 0 1-1.7 1.2c-1.68.17-3.39.06-5.37.06.52-1.49 1-2.76 1.61-4.61-4 .4-7.59.67-11.17 1.19A5.24 5.24 0 0 0 46.1 21c-1.49 1.88-3.35 1.93-5.4 1.85-1.55-.06-3.1 0-4.65 0zm16.34-7.91h8.91a1.56 1.56 0 0 0 1.17-.65c1.28-2.83 2.48-5.76 3.7-8.7-3.82-.13-10.14 4.16-13.78 9.35zM140.38.46c-1.07 2.92-2.08 5.68-3.1 8.43-1.55 4.19-3.14 8.37-4.65 12.58a1.77 1.77 0 0 1-2 1.44c-1.67-.1-3.36 0-5.23 0l1.5-4.19c-4.37-.06-8.55-.5-12.54 1.28a4.23 4.23 0 0 0-.84.45c-1 .79-1.94 1.9-3.1 2.33s-2.49.12-3.75.13h-4.21a7.71 7.71 0 0 1 .77-1.1q7.23-6.95 14.48-13.87A26.68 26.68 0 0 1 138.5.23c.55.03 1.09.13 1.88.23zm-7.62 4.36c-6.48.91-9.83 5.66-14.38 9.66h9.54a1.34 1.34 0 0 0 1-.64c1.24-2.84 2.46-5.78 3.84-9.02zM161.37.05c-3 2.05-4.17 5.1-5.38 8.16-1 2.46-2 4.89-3.05 7.34s-.7 3.08 2.15 3.09h18.62c-2 2.63-3.44 4.87-7.16 4.61-5.66-.41-11.36-.1-17-.12a15.65 15.65 0 0 1-2.82-.25c-3.33-.58-4.28-2.23-3-5.38 2.2-5.44 4.47-10.84 6.77-16.24.2-.48.76-1.15 1.18-1.16 3.19-.1 6.44-.05 9.69-.05z"/>
</svg>
