<svg xmlns="http://www.w3.org/2000/svg" viewBox="0 0 163.05 83.15">
  <path d="M84.38 83.15c-20.73-.21-37.94-2.77-54.38-9.34-9.11-3.64-17.42-8.54-23.78-16.24-2.75-3.33-5-7-5.8-11.31-1.42-7.78.87-14.61 5.84-20.57C11 20 17.05 16 23.51 12.53c9.14-4.88 19-7.62 29.1-9.62A147 147 0 0 1 88.49.17C106 1 123 4.21 138.88 12a51.85 51.85 0 0 1 18.36 14.17c3.84 4.83 6.14 10.24 5.77 16.56s-3.2 11.45-7.32 16c-5.61 6.2-12.55 10.53-20.13 13.85a120 120 0 0 1-35.44 9.35c-6.25.64-12.54.97-15.74 1.22zm-7.62-6.69c.73 0 1.46-.06 2.17 0a13.26 13.26 0 0 0 10.89-3.82 30.25 30.25 0 0 0 9-17.09c1.11-6.43-3.1-8.69-7.49-8.66a25 25 0 0 0-6.6.56c-6.64 1.85-13.27 3.79-19.78 6-9 3.11-17.61 7.07-25.19 13-.87.67-2.3 1.3-1.77 2.57.32.77 1.58 1.37 2.54 1.65a146 146 0 0 0 36.23 5.79zM86.4 6.79c-1 0-2 .06-2.94 0a12.9 12.9 0 0 0-10.58 4.16 31.86 31.86 0 0 0-8.61 16.32c-.95 4.73 1.26 8.28 5.47 8.73a25.09 25.09 0 0 0 8-.19c5.71-1.31 11.38-2.89 16.93-4.75 10.11-3.38 19.8-7.69 28.36-14.19a15.51 15.51 0 0 0 2.25-2.73 14.44 14.44 0 0 0-3.18-1.88 147 147 0 0 0-35.7-5.47zM6.51 41.11a19.09 19.09 0 0 0 3.9 11.6 35 35 0 0 0 10.24 9.09c2.4 1.47 3 1.34 4.24-1.18 8.33-17.49 17.16-34.67 30-49.43a1.45 1.45 0 0 0 .35-1.19c-.13-.3-.73-.46-1.15-.55a3.65 3.65 0 0 0-1.23.06 92.74 92.74 0 0 0-25.26 8c-6.19 3.06-12 6.6-16.36 12.17-2.74 3.5-4.61 7.41-4.73 11.43zm150 .27c0-.57-.07-1.25-.19-1.9-1.68-8.81-7.67-14.22-14.84-18.63-1.51-.93-2.36-.43-3.16 1.23-2.11 4.36-4.15 8.76-6.35 13.07-6.26 12.3-13.17 24.2-22.12 34.8-.6.71-1.25 1.38-1.79 2.13a1.38 1.38 0 0 0-.23 1.12c.13.25.67.41 1 .42a13.78 13.78 0 0 0 2.31-.21 90.87 90.87 0 0 0 25.19-8.23c5.77-2.86 11.17-6.27 15.24-11.41a21 21 0 0 0 4.97-12.39z"/>
</svg>
