<svg xmlns="http://www.w3.org/2000/svg" viewBox="0 0 168.48 84.83">
  <path d="M84.21 0c3 .09 5.94.11 8.86.27 3.93.22 7.83.54 11.73 1.05 3.63.49 7.26 1 10.86 1.73a114 114 0 0 1 27.91 9.19A65.29 65.29 0 0 1 157.12 21a36.85 36.85 0 0 1 8 9.27 23.8 23.8 0 0 1 3.3 9.82 25.24 25.24 0 0 1-.15 5.56A25.93 25.93 0 0 1 162 59.12a47.77 47.77 0 0 1-10.71 9.23 84.28 84.28 0 0 1-17.39 8.47A125.9 125.9 0 0 1 115 82c-4.08.8-8.2 1.4-12.34 1.85q-5.64.6-11.32.86-6.18.28-12.35 0c-3.24-.12-6.48-.36-9.71-.65-2.88-.25-5.75-.59-8.62-1a126.82 126.82 0 0 1-16.48-3.41 102.6 102.6 0 0 1-19.75-7.47 61 61 0 0 1-13.81-9.33 35.4 35.4 0 0 1-8.69-11.71A21.87 21.87 0 0 1 0 40.9a23.18 23.18 0 0 1 2.88-9.8 35.25 35.25 0 0 1 8-9.71 64.6 64.6 0 0 1 14.91-9.58 109 109 0 0 1 21.27-7.47 122.48 122.48 0 0 1 14.47-2.71c3.13-.39 6.26-.75 9.39-1.06 1.8-.18 3.61-.25 5.42-.32C79 .14 81.66.08 84.21 0zm-1.27 5.27c-3 .13-6.06.18-9.15.43q-5.52.43-11 1.18a109.67 109.67 0 0 0-13.06 2.64 93.85 93.85 0 0 0-18.43 6.77 54.78 54.78 0 0 0-12.25 8.12A30 30 0 0 0 12.19 33a18.94 18.94 0 0 0-.4 17.58 27.68 27.68 0 0 0 5.48 7.65A50 50 0 0 0 29.44 67a92.6 92.6 0 0 0 22.09 8.19 132.81 132.81 0 0 0 20.8 3.28c4.41.35 8.83.55 13.25.49 3.48 0 7-.25 10.43-.51 2.86-.21 5.71-.54 8.56-.9a112.94 112.94 0 0 0 11.22-2.08 99.37 99.37 0 0 0 19.09-6.39 58.84 58.84 0 0 0 13.7-8.47 31.58 31.58 0 0 0 7.27-8.47 19 19 0 0 0 .84-18.44 27.71 27.71 0 0 0-5.54-7.7 48.89 48.89 0 0 0-11-8.17 86.47 86.47 0 0 0-18.3-7.48A133.17 133.17 0 0 0 91 5.45c-2.64-.13-5.27-.12-8.06-.18z"/>
  <path d="M29.86 23.23a4.1 4.1 0 0 1 0-2.5h12.96a.89.89 0 0 1 .89.84 4.42 4.42 0 0 1 0 .63v12.89c0 .19 0 .53.32.55a.94.94 0 0 0 .61-.22 3.35 3.35 0 0 0 .53-.65l9-12.65.29-.4a2.32 2.32 0 0 1 2-1H66.77a1 1 0 0 1 1 .47 1 1 0 0 1-.21 1.11l-6.22 9.17c-1.79 2.65-3.6 5.29-5.38 8-1.09 1.64-.92 1.34 0 2.68l13.85 19.26a7.33 7.33 0 0 1 .55.82.81.81 0 0 1-.67 1.23H58.75a2.76 2.76 0 0 1-2.5-1.27C52.56 57 48.84 51.85 45.13 46.66a2.36 2.36 0 0 0-.44-.54 1 1 0 0 0-.62-.21c-.27 0-.33.31-.33.56v15.67a3.46 3.46 0 0 1 0 .56.91.91 0 0 1-.82.76 5.28 5.28 0 0 1-.56 0h-9.28c-.61 0-.87-.3-.92-.93V24.89a6.77 6.77 0 0 0 0-.78.88.88 0 0 0-1-.9c-.45 0-.89.02-1.3.02zM108.72 23.23v-2.15c0-.26.16-.37.41-.38h15.11c1.48 0 1.52 0 2 1.44q6.68 19.86 13.37 39.71c.34 1 .21 1.67-1.2 1.64-2.94-.05-5.89 0-8.83 0-1.16 0-1.48-.23-1.84-1.33l-8.13-25.26c-.07-.22-.14-.45-.22-.67s-.17-.53-.48-.54-.42.32-.52.58-.15.44-.22.66l-8 25.2a2.66 2.66 0 0 1-.34.77 1.47 1.47 0 0 1-1.36.58h-9.18c-1.06.05-1.32-.58-1-1.45.37-1.09.73-2.18 1.09-3.28l11.41-33.88c.43-1.29.2-1.62-1.16-1.64zM76 23.23v-2.48c.29 0 .54-.05.79-.05h12.06a3 3 0 0 1 .42 0 .86.86 0 0 1 .88.84 4.42 4.42 0 0 1 0 .63v40.25c0 .78-.33 1.07-1.1 1.07H79.4c-.81 0-1.05-.25-1.1-1V24.46c0-.95-.29-1.21-1.23-1.23-.33-.01-.66 0-1.07 0z"/>
</svg>
