<svg xmlns="http://www.w3.org/2000/svg" viewBox="0 0 139.45 100.21">
  <path d="M125.82 79.88c-.2.24-.29.37-.4.48a65.94 65.94 0 0 1-16.15 11.08 78.7 78.7 0 0 1-11 4.42 90.12 90.12 0 0 1-13.92 3.25 95.76 95.76 0 0 1-16 1.09 106.35 106.35 0 0 1-16.8-1.55 87.69 87.69 0 0 1-17.43-4.84 63 63 0 0 1-20.23-12.49A43.41 43.41 0 0 1 2.2 63.6 41.93 41.93 0 0 1 .11 47a40.66 40.66 0 0 1 5.37-17.65A45 45 0 0 1 11.73 21a55.09 55.09 0 0 1 10.87-8.85 71.84 71.84 0 0 1 14.08-6.77A85.28 85.28 0 0 1 48.2 2.14a89.53 89.53 0 0 1 13-1.82C64.07.16 66.91 0 69.74 0A101.54 101.54 0 0 1 89 1.76c1.61.31 3.2.66 4.79 1a4.31 4.31 0 0 1 1.27.54 2.55 2.55 0 0 1 1.2 3.3 14 14 0 0 1-2.59 4.25c-2 2.49-4.08 4.89-6 7.4q-9.08 11.62-17.54 23.66c-2.64 3.75-5.11 7.62-7.67 11.42a18 18 0 0 0-2.57 5 11.17 11.17 0 0 0-.47 2.27A3.66 3.66 0 0 0 63 64.85c1.46.11 2.94.08 4.41.09l54.93.16c2.49 0 4.23-1.24 5.2-3.82a30.31 30.31 0 0 0 1.87-9.88 41.57 41.57 0 0 0-1-10.72 37.66 37.66 0 0 0-5-11.87 43.14 43.14 0 0 0-15.2-14.12 60 60 0 0 0-8.18-3.88c-.69-.27-.7-.3-.27-.93.89-1.31 1.78-2.62 2.65-3.94a.62.62 0 0 1 .86-.3A70.37 70.37 0 0 1 117 12.26a55.58 55.58 0 0 1 9.62 7.6 43.09 43.09 0 0 1 11 17.85 41.56 41.56 0 0 1 1.82 14 37.29 37.29 0 0 1-7.6 21.3 15.62 15.62 0 0 1-1.84 2.14 5.5 5.5 0 0 1-3.84 1.19h-15.85l-23.92-.06c-11.08 0-22.16 0-33.24-.11a19.28 19.28 0 0 1-8.9-2c-4.3-2.24-6.33-5.87-6.44-10.64a23.47 23.47 0 0 1 2.46-10.37 46.27 46.27 0 0 1 4.82-7.83c3.91-5.56 7.84-11.02 11.84-16.44 3.25-4.41 6.58-8.76 9.92-13.11 1.87-2.45 3.83-4.84 5.74-7.26a1.5 1.5 0 0 0-.81-2.6 5.9 5.9 0 0 0-1.56-.24 89.35 89.35 0 0 0-13.67.89 74 74 0 0 0-17.31 4.48 54.84 54.84 0 0 0-11.61 6.25A41 41 0 0 0 15.4 30.68a38.54 38.54 0 0 0-4.74 16.12 35.46 35.46 0 0 0 5.27 21.86 47.7 47.7 0 0 0 14.74 14.85A65.09 65.09 0 0 0 49.9 92a77.12 77.12 0 0 0 15.62 2.45 80.72 80.72 0 0 0 21-1.54 68.27 68.27 0 0 0 19.65-7.3 54.55 54.55 0 0 0 7.8-5.33 1.56 1.56 0 0 1 1.07-.4h10.11c.15-.06.33-.03.67 0z"/>
</svg>
