<svg xmlns="http://www.w3.org/2000/svg" viewBox="0 0 142.95 105.88">
  <path d="M72.75 105.88c-20.27-.63-37.64-4.88-52.64-16.38C7.46 79.84-.62 67.57 0 51c.6-14.06 7.76-24.87 18.38-33.49C31.7 6.68 47.29 1.59 64.26.3 81.52-1 97.94 2 113.27 10.13c11.74 6.22 21.32 14.72 26.4 27.36 6.87 17.07 2.85 34.07-11.16 47.35-11.88 11.27-26.31 17.16-42.29 19.63-5.02.77-10.11 1.07-13.47 1.41zM51 78.22c-1.63 6.71-1.63 6.75-7.22 6.67-5.4-.07-10.8-.24-16.2-.33a26.19 26.19 0 0 0-3.05.28l-.23.83c2.05 1.63 4 3.39 6.15 4.85 11.44 7.72 24.15 11.38 37.89 12.12 16.58.9 31.71-3 45.12-12.9 16-11.88 23.13-30.78 18-48.34-1.28-4.4-3.44-8.54-5.2-12.8h-1.09c-7.76 16.07-17.12 30.6-35.39 36.6l.47 1.08h19.48c-.77 3.52-2 5.31-5.45 4.9a91.05 91.05 0 0 0-9.77-.18h-8.48a9 9 0 0 1 .27-1.47c7.63-15.31 15.23-30.63 23-45.88a3.87 3.87 0 0 1 2.79-1.47c2.46-.21 5-.07 7.43-.07l.43-.89c-2.7-2.17-5.25-4.58-8.12-6.49A71 71 0 0 0 63.89 2.82c-16.18 1.65-30.36 7.5-41.82 19.26C7.58 37 5.23 58.42 16.19 75.09c.58.9 1.28 1.72 2.19 2.91.74-1.29 1.27-2.13 1.72-3q13-25.12 25.83-50.28a4 4 0 0 1 4.21-2.59c6.42.13 12.85 0 19.27.07 1 0 1.92.16 3.31.28-9.89 24.87-22.95 46.14-50.12 54.75l.41 1z"/>
  <path d="M102.11 21.88c-8.86 22.35-19.64 41.46-43.69 48.68l.12.77h24.85c-1.22 5.81-1.21 5.62-6.3 5.41-6.73-.28-13.46-.23-20.19-.32h-3.91l6.14-12.08C65.89 51 72.71 37.65 79.37 24.24c1-2 2.11-2.49 4.25-2.42 5.89.18 11.8.06 18.49.06z"/>
</svg>
