<svg xmlns="http://www.w3.org/2000/svg" viewBox="0 0 136.39 110.63">
  <path d="M133.4 75.73c2.86-8.93 3.66-18.59 2.43-29.52-1.14-10.21-4.24-18.47-9.48-25.21-6.71-8.66-16-14.35-29.28-17.89C86.84.37 76.66 0 68.05 0c-1.88 0-3.75 0-5.63.05A95.25 95.25 0 0 0 35.54 4.1c-17.63 5.44-28.44 16-33 32.12A71 71 0 0 0 .83 66.05c2.58 18.4 11.84 30.8 28.31 37.9 13.23 5.71 27.08 6.58 38.88 6.68 13.41-.09 23.48-1.4 32.63-4.25C117.78 101 128.49 91 133.4 75.73zM20 28a31.85 31.85 0 0 1 10.08-11.7C36.33 11.69 44 8.86 53.45 7.67a121.69 121.69 0 0 1 15.41-1 89.8 89.8 0 0 1 21.69 2.49c10.15 2.49 17.75 7.31 23.21 14.72.34.47.66 1 1 1.56l.59.94 1.12 1.73-1.86.9-3.16 1.54c-2.29 1.11-4.52 2.2-6.78 3.23-1.91.88-3.83 1.71-5.75 2.55-2.5 1.09-5.1 2.22-7.59 3.41a43.41 43.41 0 0 0-20.79 20.61c-.16.32-.33.63-.53 1l-.3.52-1.47 2.67L66.58 62c-.5-.77-1-1.53-1.46-2.28-1-1.59-2-3.09-3-4.54C57.06 48 49.79 42.64 39.26 38.33 35.07 36.61 31 34.85 26.71 33c-1.91-.83-3.83-1.67-5.78-2.5l-1.78-.77zm74.34 72.23a91.77 91.77 0 0 1-26.22 3.89 91.65 91.65 0 0 1-25.66-3.72C27 95.87 17.52 84.56 15.08 67.67a96.26 96.26 0 0 1-.64-14.47v-6.14a4.74 4.74 0 0 1 .29-1.6 6.3 6.3 0 0 0 .2-.68l.49-1.93 1.88.65c2.91 1 5.8 2 8.67 3 6.64 2.25 12.91 4.38 19.24 6.79C54.7 56.87 62 63.7 67.39 74.13l.6 1.15c.33-.52.65-1 1-1.57 2-3.18 4-6.47 6.27-9.55 4.17-5.64 10.13-9.89 17.69-12.65 6-2.2 12.06-4.38 18.23-6.61l8-2.9 2.17-.79.27 2.3.21 1.76c.16 1.24.3 2.42.4 3.61a68.14 68.14 0 0 1-2.58 26.19c-4.09 12.93-12.6 21.35-25.3 25.14z"/>
</svg>
