<svg xmlns="http://www.w3.org/2000/svg" viewBox="0 0 127.12 127.24">
  <path d="M0 60.48c.1-6.4 2.13-14.84 6-22.85A67.82 67.82 0 0 1 33.72 8 61.52 61.52 0 0 1 55.58.56 58.51 58.51 0 0 1 70.48.4 61.47 61.47 0 0 1 91 6.65a66.29 66.29 0 0 1 22.4 18.44 63.66 63.66 0 0 1 12 24.51 57.93 57.93 0 0 1 1.6 18.09 62.4 62.4 0 0 1-11.34 31.48 65.46 65.46 0 0 1-12.16 13.21 64.29 64.29 0 0 1-24.3 12.75 58.05 58.05 0 0 1-21.74 1.77 61.71 61.71 0 0 1-26.06-9A67.73 67.73 0 0 1 16.11 105a64.72 64.72 0 0 1-11.2-17.55C1.58 79.63-.15 71.48 0 60.48zm13.13 30.35l.74-.55L28 79.29Q41.11 69 54.24 58.74a1.52 1.52 0 0 0 .49-.88c.27-1.65.47-3.3.7-5q1-7 2-14.09.95-6.8 1.87-13.6c.84-6 1.66-12 2.52-18 .09-.65-.08-.88-.74-.8-3 .36-6 .57-8.92 1.1a50.35 50.35 0 0 0-16.29 6.18 59.48 59.48 0 0 0-29.23 45A53.57 53.57 0 0 0 7 73.18a55.52 55.52 0 0 0 4.09 13.44c.66 1.38 1.34 2.73 2.04 4.21zm100.75-.19c.14-.1.19-.12.21-.16s.12-.21.18-.31a55.87 55.87 0 0 0 6-19 54.82 54.82 0 0 0 .06-14.25 55.64 55.64 0 0 0-3.16-12.66A59.64 59.64 0 0 0 107.92 28a58.42 58.42 0 0 0-23.3-17.71A50.47 50.47 0 0 0 66.2 6.38h-.8v.64q.58 4.1 1.15 8.21 1.79 13 3.58 25.91 1.17 8.36 2.38 16.7a1.54 1.54 0 0 0 .56.91q10.53 8.28 21.09 16.53l17.13 13.36zM112 93.89l-.62-.29-10.86-4.41q-18.17-7.39-36.4-14.76a1.77 1.77 0 0 0-1.2 0c-3.87 1.56-7.73 3.15-11.58 4.73l-22.75 9.32-12.5 5.12c-.31.13-.6.31-.91.46 8.86 15.22 28 27.56 50.12 26.77 20.86-.75 38.62-12.83 46.7-26.94z"/>
</svg>
