<svg xmlns="http://www.w3.org/2000/svg" viewBox="0 0 178.64 78.56">
  <path d="M88.08 78.56l-1.9-.14a38.4 38.4 0 0 1-14-3.73 39.4 39.4 0 0 1-15.93-14 .59.59 0 0 0-.57-.31H42.42a.85.85 0 0 1-.65-.26c-1.7-1.73-3.42-3.45-5.14-5.17l-.24-.26H53l-2.1-6.45H30.3a.79.79 0 0 1-.64-.26q-2.55-2.58-5.12-5.14l-.29-.31H50V36.1H18.28a1 1 0 0 1-.81-.34c-1.66-1.68-3.34-3.36-5-5l-.33-.35h38.2c.59 0 .59 0 .73-.57a39.86 39.86 0 0 1 1.85-5.63L53 24H6.12a1 1 0 0 1-.74-.3C3.67 21.94 2 20.22.24 18.5L0 18.24h55.59a.71.71 0 0 0 .68-.35 39.21 39.21 0 0 1 60.26-6.74 39.29 39.29 0 0 1 5.61 6.85.48.48 0 0 0 .46.23h56v.07c-.09.08-.2.16-.29.25q-2.55 2.55-5.09 5.11a1 1 0 0 1-.74.31h-47.05l2.07 6.44h39l-.31.33-5.05 5.06a1 1 0 0 1-.77.32h-32.05c0 1.12.1 2.18.09 3.24s-.06 2.11-.1 3.22h26.07c-.13.13-.2.21-.28.28L149 48a.84.84 0 0 1-.65.27h-20.86c-.71 2.18-1.41 4.31-2.1 6.45h16.85L142 55c-1.7 1.7-3.41 3.4-5.1 5.12a.86.86 0 0 1-.71.29h-13.56a.56.56 0 0 0-.55.28 39.25 39.25 0 0 1-30 17.77l-1.9.13zm1.24-72.72a33.51 33.51 0 1 0 33.51 33.58A33.5 33.5 0 0 0 89.32 5.84z"/>
  <path d="M62.38 48.11V30.48H67.15a.45.45 0 0 1 .52.37c1.41 4.31 2.84 8.61 4.26 12.92l.16.45c.32-1 .62-1.86.9-2.74l3.51-10.74c0-.17.11-.29.33-.29h4.92v17.66H78V35.35h-.1c0 .12-.08.24-.11.37q-1.84 6-3.67 12.07a.45.45 0 0 1-.51.38h-3.18a.36.36 0 0 1-.44-.32q-1.83-6.06-3.67-12.11a1.08 1.08 0 0 0-.21-.43v12.8zM97.16 48.12h-3.48V30.48H97.46a.5.5 0 0 1 .52.31q3.26 6 6.52 11.91a1.89 1.89 0 0 0 .39.54V30.49h3.51v17.63a5.09 5.09 0 0 1-.54 0c-1.07 0-2.14 0-3.21.09a.6.6 0 0 1-.64-.35q-3.27-5.82-6.58-11.63c-.07-.12-.14-.25-.27-.46zM112.54 30.45h3.56V48.1h-3.56zM85.9 48.09V30.45h3.54v17.64z"/>
</svg>
