<svg xmlns="http://www.w3.org/2000/svg" viewBox="0 0 129.74 111.91">
  <path d="M64.89 75.08h-.13c-.15-.29-.28-.6-.45-.89Q53.66 56.22 43 38.29a.83.83 0 0 1 0-1Q53.79 18.9 64.57.46l.3-.46c.13.21.25.38.35.56Q76 18.8 86.77 37.05a.78.78 0 0 1 0 .92q-11 18.49-21.87 37a.42.42 0 0 0 0 .1z"/>
  <path d="M64.76 75.06a2.8 2.8 0 0 1-.22.57Q54 93.56 43.46 111.48a.75.75 0 0 1-.76.43H0c.13-.24.22-.42.32-.59Q10.76 93.53 21.2 75.77a1.1 1.1 0 0 1 1.1-.64h41.75c.24 0 .48 0 .72-.06zM64.88 75.1h42.47a1.22 1.22 0 0 1 1.23.72Q119 93.57 129.4 111.26c.11.18.2.36.34.6H87a.75.75 0 0 1-.76-.43q-10.55-18-21.11-35.89c-.1-.17-.18-.34-.27-.51z"/>
</svg>
