<svg xmlns="http://www.w3.org/2000/svg" viewBox="0 0 158.06 64.19">
  <path d="M79 0C35.38 0 0 14.37 0 32.09s35.38 32.1 79 32.1 79-14.37 79-32.1S122.67 0 79 0zm0 61c-37.94 0-68.73-13-68.73-28.91S41.06 3.21 79 3.21s68.75 12.93 68.75 28.88S117 61 79 61z"/>
  <path d="M24.94 45.8c1.07 1.29 9.67 5.08 19.11-20 0 0-.81 10-.56 14.32s1.08 10.65 6.75 4.37 10.39-20 10.39-20-2.7 16.46 0 19.39 5.84 2.59 8.37.12c0 0-2.92-2.08-2.7-6.82s1.59-19.11 1.8-21.08-5.16-2.4-11.69 8.9l-6.82 12.31s2.06-12.74 1.49-17.5-3.72-5.25-6.18-3.91-4.9 9.31-6.53 13.49-6.82 13.42-13.43 16.41zM84.78 45c1.31 1.32 10.54 5.15 14.84-20.35 0 0 1.19 10.15 2.3 14.53s3.18 10.8 7.52 4.42 6.25-20.33 6.25-20.33.61 16.7 3.86 19.66 6.29 2.7 8.26.21a10.28 10.28 0 0 1-4-6.92c-.73-4.8-1.59-19.55-1.77-21.55s-6.18-2.28-10.37 9.18l-4.26 12.51s-.51-12.93-2-17.76-4.71-5.32-6.87-3.95-2.95 9.44-3.75 13.7S90.7 42 84.78 45zM93 15s-3.43-.62-6.47 5.21A180.76 180.76 0 0 0 79 38c-.23-3.63 1.09-18.41 2.52-23-1.61 0-3.36-.24-5.83 1.82S71.93 23 71.58 38.41s8.42 5.9 9.74 4.19S90.89 26.05 93 15z"/>
</svg>
