<svg xmlns="http://www.w3.org/2000/svg" viewBox="0 0 153.82 131.44">
  <path d="M153.77 53.81c0-2.78-1.53-4.32-4.29-4.67-1.74-.22-3.47-.51-5.21-.71A1.33 1.33 0 0 1 143 47.3a64.43 64.43 0 0 0-25.62-34.66c-16.15-11.1-34.09-15-53.25-11.25-26 5.09-43.87 20.12-52.81 45.31A1.46 1.46 0 0 1 10 47.82c-1.76.32-3.52.66-5.25 1.12a5.21 5.21 0 0 0-4 3.67 15.71 15.71 0 0 0-.49 3A146.94 146.94 0 0 0 .7 77.89a4.3 4.3 0 0 0 3.71 4.19c1.5.28 3 .57 4.53.74 1.3.14 2.27.5 2.39 2a6.39 6.39 0 0 0 .48 1.48c8.78 25.37 32.76 43.2 60.64 45a69 69 0 0 0 32.2-5.38c18.87-8.21 31.87-21.92 38.35-41.58a1.27 1.27 0 0 1 1.22-1c1.67-.21 3.34-.46 5-.69 2.79-.39 4.18-1.65 4.39-4.48.28-4.31.22-20.54.16-24.36zM74.2 16.18c24.19-1.18 43.2 13.06 50.6 30.08-31.64-2.51-63.23-2.34-94.95-.91 5.93-13.69 22.02-28.04 44.35-29.17zm37.37 56.73h-4.58a1.43 1.43 0 0 1-1-.81c-.6-1.77-1.76-2.3-3.57-2.11a35.33 35.33 0 0 1-5 0c-.75 0-1.23.17-1.39.92-.38 1.71-1.43 2.32-3.15 2a20.6 20.6 0 0 0-3 0c.13-.39.22-.69.34-1 2.17-4.86 4.37-9.72 6.51-14.6a1.35 1.35 0 0 1 1.49-1c1.61.07 3.22 0 4.82 0a1.4 1.4 0 0 1 1 .61c2.5 5.12 5 10.27 7.43 15.41a3.45 3.45 0 0 1 .1.58zm-28-6.11H76.5a3.82 3.82 0 0 1-3.29-1.6 5.57 5.57 0 0 1-.5-5.94 4.74 4.74 0 0 1 4.66-2.88H88.15v4.2H77.51v2.43h7.75a4 4 0 0 1 4.15 3.32 10.09 10.09 0 0 1-.34 4.05 3.46 3.46 0 0 1-3.68 2.48H72.52V69h12.26v-2.13c-.43-.02-.78-.07-1.22-.07zm-23.31 0h-2.14c-2.86 0-4.69-1.55-4.91-4.13-.29-3.3 1.43-6.06 4.26-6.21 3.87-.22 7.76-.06 11.72-.06v4.22H58.53v2.44c2.65 0 5.26.14 7.86-.05 1.89-.15 4.12 2.06 4.17 3.9.06 2.17-.08 4.21-2.11 5.55a2.47 2.47 0 0 1-1.23.43H53.87a1.59 1.59 0 0 1-.37-.11v-3.87h12.24V66.8zM50 56.45v16.39h-5.7V56.45zm-23.14 6.14v10.26h-5V56.39h8c.28 0 .62.46.79.79 1.69 3.2 3.35 6.42 5 9.63a1.67 1.67 0 0 0 .61.71V56.39h3.78c.17 0 .46.38.46.58v15.59c0 .07-.06.13-.17.31h-7.08c-.28 0-.62-.47-.81-.79-1.62-2.86-3.2-5.73-4.8-8.6a2.32 2.32 0 0 0-.78-.89zm86.21 39a51.69 51.69 0 0 1-30.47 13.54c-27.31 2.65-46.81-14.27-53.24-29.91 31.8 1.82 63.51 2.78 95.45.15a48.5 48.5 0 0 1-11.74 16.2zm19.11-28.66a37.83 37.83 0 0 0-4.88 0c-2.25.3-3.49-.54-4.46-2.57a76.19 76.19 0 0 0-4.71-8.09v10.54H113c0-.32-.06-.64-.06-1V57.45c0-.89.25-1.15 1.14-1.13 2.24.06 4.49 0 6.73 0a1.21 1.21 0 0 1 1.28.8c1.46 3.1 3 6.18 4.47 9.27l.45.87.26-.07V56.45h4.9z"/>
  <path d="M98.27 65.69H103L100.62 61z"/>
</svg>
