<svg xmlns="http://www.w3.org/2000/svg" viewBox="0 0 104.97 109.96">
  <path d="M105 102.77v.23c-.17.12-.35.23-.51.36-.85.71-1.66 1.49-2.56 2.11a8.94 8.94 0 0 0-3.14 3.53.84.84 0 0 1-1 .52c-2.06-.1-4.11-.25-6.17-.24-6.75 0-13.51-.26-20.28.65v-.66-3.15a15.52 15.52 0 0 1 1.21-5.66 4.43 4.43 0 0 1 3-2.66c.68-.16 1.34-.38 2-.54 1.23-.29 2.47-.53 3.7-.82 1-.23 1.24-.63 1.22-1.62 0-1.26-.83-2-2.32-2.07a6.72 6.72 0 0 1-3.81-1.22c-.45-.31-.92-.59-1.37-.9-3.41-2.44-6.81-4.9-10.24-7.32a42.59 42.59 0 0 0-3.79-2.41c-1.14-.64-1.8-.44-2.66.54-.2.22-.38.45-.56.68a140.4 140.4 0 0 1-12.08 13.75A12.54 12.54 0 0 0 43.82 98a5.56 5.56 0 0 0-1.08 2.51c-.07 2.07.16 4.15.24 6.23v3.22l-1.38-.07c-4.54-.22-9.08-.57-13.62-.62-5.19-.06-10.38.13-15.56.23-.56 0-.77-.12-.72-.71.19-2.26.39-4.53.5-6.8a4.41 4.41 0 0 1 2.76-4 20.87 20.87 0 0 1 5.18-1.54c2-.39 4.1-.68 6.13-1.11s2.57-1.11 2.43-3.31c-.11-1.73-.29-3.45-.3-5.18a14.53 14.53 0 0 1 2.19-7.23c1.82-3.23 3.76-6.4 5.6-9.62 1.62-2.83 3.16-5.71 4.78-8.54a.92.92 0 0 0-.24-1.46c-.79-.62-1.55-1.3-2.31-2a12.07 12.07 0 0 0-8.34-2.88c-6.12.08-12.25.22-18.37.36a1.6 1.6 0 0 1-1.28-.49 3.57 3.57 0 0 0-2.7-1A8.78 8.78 0 0 0 4.15 55c-.72.32-1.43.68-2.2 1-.48-1-.95-2-1.39-3a5.94 5.94 0 0 1-.23-4.48 7.1 7.1 0 0 1 4.68-5c.57-.19 1.13-.41 1.7-.59a85.23 85.23 0 0 1 10.57-2.34c1-.18 2-.38 3.09-.59a4.62 4.62 0 0 0-.41-.63c-1.06-1-2.07-2.06-3.19-3a5.62 5.62 0 0 0-4-1.25 2 2 0 0 1-2.34-1.49 3.11 3.11 0 0 0-3.69-2.3c-.91.16-1.84.24-2.8.37-.31-1-.56-2.08-1-3.08a2.55 2.55 0 0 1 1-3.3c.2-.15.39-.33.6-.47a15.14 15.14 0 0 1 8.07-2.71 24.66 24.66 0 0 1 11.8 2.56c5.12 2.48 10.14 5.18 15.2 7.78l1.44.76c1-1.54 2-3 2.89-4.56a1.73 1.73 0 0 0 .25-.7.8.8 0 0 0-.13-.58 1.8 1.8 0 0 0-2.24-.55c-.68.37-1.38.71-2.09 1a2.66 2.66 0 0 1-3.15-.67c-1.26-1.6-2.4-3.29-3.63-5 .52-.3.93-.51 1.31-.76a3.38 3.38 0 0 1 2.39-.42 25.34 25.34 0 0 0 3.48.25 4.07 4.07 0 0 0 2.78-.87 1.88 1.88 0 0 0 .6-2.1 2.68 2.68 0 0 0-1.85-1.79c-2.54-.86-5.4-.83-6.93 2a.32.32 0 0 1-.14.18c-.08.05-.22.12-.29.09-1.18-.49-2.47-.79-3.3-1.87-1.06-1.41-2.15-2.81-3.14-4.27S27 10.93 28.4 10a20.12 20.12 0 0 1 5.09-2.41 5.67 5.67 0 0 0 2.91-2.11A9.47 9.47 0 0 1 41.29 2c1.88-.58 3.8-1 5.71-1.42C48.12.34 49.25.19 50.37 0h.82c.13.05.25.11.38.15Q61 3.21 70.39 6.27a1.21 1.21 0 0 1 .65.5 26 26 0 0 0 3.79 5.44 37.78 37.78 0 0 0 3.31 3 3.76 3.76 0 0 0 .72.4 3.35 3.35 0 0 0 .19-.42A9.35 9.35 0 0 1 90 8.85a13.79 13.79 0 0 1 6.52 4 1 1 0 0 1 .21.47q2.27 8.74 4.5 17.49a7.19 7.19 0 0 1 .23 1.14c.07.69-.39 1-1 .73a3 3 0 0 1-.56-.3c-1.55-1.11-3.12-2.18-4.63-3.34a12 12 0 0 1-4-5.46 18.42 18.42 0 0 1-1.06-5.35 9.75 9.75 0 0 0-.57-2.53 1.31 1.31 0 0 0-1.38-.86 3.84 3.84 0 0 0-3.26 1.8 7.72 7.72 0 0 0-1.21 5.12 18.7 18.7 0 0 0 1.68 6.46c1.9 4.23 3.9 8.42 5.9 12.61a68.37 68.37 0 0 1 4.34 10.6 11.61 11.61 0 0 1-1.93 10.79 17.57 17.57 0 0 1-4.56 4.21 4.94 4.94 0 0 0-1.89 1.93 2 2 0 0 0 .11 2.21c.3.43.59.87.92 1.28a67.5 67.5 0 0 1 8.24 12.47c2.19 4.43 4.19 8.93 6.25 13.42.75 1.66 1.41 3.35 2.15 5.03zM81.75 34.91h-.15a8.17 8.17 0 0 1 0 1.4c-.18 1.08-.38 2.17-.65 3.23a2.32 2.32 0 0 1-1.56 1.61c-2.06.79-4.12 1.61-6.16 2.46-1.09.45-2.16 1-3.21 1.51a1.7 1.7 0 0 0-.86 1.94 5.66 5.66 0 0 0 1.54 3 15.6 15.6 0 0 1 1.13 1.17c1.53 1.91 3 3.86 4.58 5.74a16.73 16.73 0 0 0 2.38 2.38 2.84 2.84 0 0 0 3.43.27l5.41-3.2a4 4 0 0 0 2-3.68v-1.22a1.52 1.52 0 0 0-.14-.67c-.82-1.68-1.63-3.35-2.48-5-1.8-3.55-3.84-7-5.18-10.75a1.42 1.42 0 0 0-.08-.19z"/>
</svg>
