<svg xmlns="http://www.w3.org/2000/svg" viewBox="0 0 93.05 118.29">
  <path d="M93.05 58.37v1.19a14.86 14.86 0 0 0-1 1.36Q80.37 81.94 68.69 103c-2.82 5.08-5.57 10.21-8.35 15.32h-28a16.67 16.67 0 0 0-.81-2Q16.08 88.48.57 60.64a2.69 2.69 0 0 1-.18-3Q16 29.6 31.45 1.51A2.53 2.53 0 0 1 34.07 0c8.2.06 16.41.08 24.62 0a2.77 2.77 0 0 1 2.84 1.75q15.12 27.49 30.33 54.94a17.62 17.62 0 0 0 1.19 1.68zm-92.18.51c8.48 0 16.55 0 24.61-.05.47 0 1.09-.62 1.38-1.1 1.86-3.17 3.64-6.38 5.45-9.58Q43.88 27.69 55.46 7.23a9.72 9.72 0 0 1 1.67-1.73l.56.47c-.23.6-.43 1.2-.69 1.79-2.54 5.75-5.13 11.48-7.58 17.24a3.64 3.64 0 0 0 .13 2.84c5.59 9.87 11.31 19.67 16.94 29.52a2.59 2.59 0 0 0 2.62 1.52c7-.06 14 0 21.08 0 .49 0 1-.07 1.59-.12a7.45 7.45 0 0 0-.36-.85Q76 30 60.51 2.17a2.26 2.26 0 0 0-2.33-1.3H34.93a2.67 2.67 0 0 0-2.76 1.59Q20.49 23.65 8.69 44.77C6.15 49.34 3.62 53.92.87 58.88zm45.82-24.66a4.1 4.1 0 0 0-.53.59C41.84 42.53 37.5 50.24 33.25 58a2.8 2.8 0 0 0 .13 2.26c4 7.36 8.11 14.68 12.19 22 .27.49.59 1 .88 1.43.24-.15.39-.19.44-.28 4.37-7.83 8.75-15.67 13.11-23.54a2.34 2.34 0 0 0-.1-1.93c-4.36-7.87-8.74-15.7-13.21-23.72zm-.12 51.72c-.53-.91-.86-1.46-1.17-2-4.34-7.79-8.65-15.59-13-23.36a2.85 2.85 0 0 0-1.63-1.37 30.29 30.29 0 0 0-4.31-.06c.55 1 .93 1.74 1.34 2.46C33.14 71 38.47 80.39 43.89 89.75a3.14 3.14 0 0 1 .16 3.25c-2.34 5.13-4.59 10.29-6.87 15.44-.49 1.11-1 2.24-1.42 3.35l.94.54c5.11-8.72 10.06-17.53 15.09-26.29S62 68.25 67.2 59.12a23.59 23.59 0 0 1-3.31 0c-1.87-.29-2.79.59-3.61 2.16-2.45 4.64-5.06 9.19-7.62 13.77-1.96 3.51-3.94 7.04-6.09 10.89z"/>
</svg>
