<svg xmlns="http://www.w3.org/2000/svg" viewBox="0 0 130.8 130.81">
  <path d="M65.4 130.81a65.41 65.41 0 1 1 65.4-65.41 65.48 65.48 0 0 1-65.4 65.41zm0-128.63a63.23 63.23 0 1 0 63.23 63.22A63.29 63.29 0 0 0 65.4 2.18z"/>
  <path d="M42.33 26a2.06 2.06 0 0 0 .57-.23 1.46 1.46 0 0 0 .5-.44 2.6 2.6 0 0 0-.75-.36 1 1 0 0 0-.79 0c-.1.06-.16.21-.17.46a1.37 1.37 0 0 0 .05.52c.11.15.26.16.59.05zM56 20.89a1.5 1.5 0 0 0 .61-.27 2.71 2.71 0 0 0-.6-.57 1 1 0 0 0-.76-.22c-.11 0-.21.15-.3.39a1.33 1.33 0 0 0-.12.5c.08.13.26.2.55.22a2.48 2.48 0 0 0 .62-.05z"/>
  <path d="M65.4 8.06a57.35 57.35 0 1 0 57.35 57.34A57.34 57.34 0 0 0 65.4 8.06zm0 91.53A34.19 34.19 0 1 1 99.59 65.4 34.19 34.19 0 0 1 65.4 99.59z"/>
  <path d="M84.52 105.07a3.12 3.12 0 0 0-1-.65 3 3 0 0 0-1.14-.25 2.67 2.67 0 0 0-1.17.21 2.89 2.89 0 0 0-1 .67 3.17 3.17 0 0 0-.88 2.12 2.88 2.88 0 0 0 .21 1.19 2.91 2.91 0 0 0 .68 1 3 3 0 0 0 1 .64 3.27 3.27 0 0 0 1.13.25 3.06 3.06 0 0 0 1.19-.22 2.76 2.76 0 0 0 1-.67 3.09 3.09 0 0 0 .64-1 3.14 3.14 0 0 0 .24-1.14 3.06 3.06 0 0 0-.23-1.18 3.11 3.11 0 0 0-.67-.97zM54.53 106.14a1.68 1.68 0 0 0-.52-.37 6.37 6.37 0 0 0-.7-.26l-1.63-.51-.85 2.87 1.63.49a5.14 5.14 0 0 0 .72.15 1.55 1.55 0 0 0 .65 0 1.29 1.29 0 0 0 .52-.32 2 2 0 0 0 .44-1.49 1.17 1.17 0 0 0-.26-.56zM65.4 95.4a30 30 0 1 1 30-30 30 30 0 0 1-30 30zm0-57.81A27.82 27.82 0 1 0 93.22 65.4 27.84 27.84 0 0 0 65.4 37.59z"/>
  <path d="M77.53 50.7c-3 .6-8.07 1.37-9.68 6.68s1.29 13 19.37 21.43a.81.81 0 0 1 .21 1.2c-.54.71-37.1-16.92-45.56-7.2 0 0-1.53-7 7.26-9.26 0 0-.14-13.54 13.15-14.4s16.6 1.28 15.25 1.55z"/>
</svg>
