<svg xmlns="http://www.w3.org/2000/svg" viewBox="0 0 145.62 88.63">
  <path d="M28 9.38l1-.53a58.25 58.25 0 0 1 13.81-5.74c.8-.2 1.62-.32 2.42-.48a3.27 3.27 0 0 1 .54 0c1.22 0 1.5.35 1.23 1.66a3.8 3.8 0 0 0 .69-.19 58.09 58.09 0 0 1 10-3.52A23.91 23.91 0 0 1 61.17 0a1 1 0 0 1 .8.34 1 1 0 0 1-.29.83 8.59 8.59 0 0 1-1.45 1.09A77.22 77.22 0 0 0 47 12.1a45.36 45.36 0 0 0-10.64 14.29 42.09 42.09 0 0 0-2 5.65 18.08 18.08 0 0 0 .08 8.83c2 9.38 8 15.25 16.73 18.56a80 80 0 0 0 15 3.68 5.33 5.33 0 0 1 2.55 1 2.37 2.37 0 0 1 .1 3.89c-1.12.9-2.24 1.78-3.33 2.71A8.24 8.24 0 0 0 64 72.25 4.86 4.86 0 0 0 64 78a7.19 7.19 0 0 0 2.81 2.44 12.75 12.75 0 0 0 11.86 0 8 8 0 0 0 2.21-1.67 5.12 5.12 0 0 0-.54-7.83c-1.14-.93-2.28-1.86-3.44-2.75-1.84-1.4-1.2-3.43.44-4.39a10 10 0 0 1 3.4-.88 84.58 84.58 0 0 0 13.59-3.45c6.72-2.49 12-6.68 15.05-13.26A24.28 24.28 0 0 0 111.65 35a21.09 21.09 0 0 0-1.82-7.25 43.18 43.18 0 0 0-9.11-13.54 73.69 73.69 0 0 0-15.37-12 7.24 7.24 0 0 1-1.37-1 2.75 2.75 0 0 1-.44-.91c.31-.12.64-.37.93-.35a20 20 0 0 1 3.28.5A58.84 58.84 0 0 1 98 4.15a4.28 4.28 0 0 0 .46.17c0-.08.09-.11.09-.13-.29-1.29 0-1.7 1.36-1.58a19.82 19.82 0 0 1 2.85.52 57.48 57.48 0 0 1 13.73 5.7l.85.45a.64.64 0 0 0 .2 0c0-.06.09-.13.08-.19-.21-1.13 0-1.39 1.09-1.24a9 9 0 0 1 2.28.59 50 50 0 0 1 18.49 12.92 24 24 0 0 1 5.37 9.44 16.35 16.35 0 0 1-1 12.3 31.36 31.36 0 0 1-10.27 11.34 46.09 46.09 0 0 1-10.82 5.37 171.72 171.72 0 0 1-19.65 5.32c-5.37 1.21-10.76 2.3-16.14 3.45-.62.13-1.38.13-1.55.93s.54 1 1 1.42c1 .85 2 1.67 2.92 2.53a7.62 7.62 0 0 1 1.11 1.16 3.16 3.16 0 0 1-.4 4.68 11.12 11.12 0 0 1-3 1.89 25.05 25.05 0 0 0-8.16 5.25 7.76 7.76 0 0 1-4.63 2.07A9.51 9.51 0 0 1 66 85.9a21.63 21.63 0 0 0-7-4.46 14.73 14.73 0 0 1-2.81-1.54c-2.39-1.72-2.51-4-.35-6.05 1.07-1 2.22-1.92 3.33-2.88.21-.19.44-.36.64-.57.59-.64.46-1.28-.38-1.57a15.05 15.05 0 0 0-1.76-.43c-7.75-1.71-15.5-3.38-23.23-5.16a89.65 89.65 0 0 1-15-4.72A38.3 38.3 0 0 1 6.8 50.15a29 29 0 0 1-5.48-7.78A12.1 12.1 0 0 1 .1 38.06a18.91 18.91 0 0 1 1.34-9.45 31.27 31.27 0 0 1 7.65-10.38A53.19 53.19 0 0 1 24 8.67a11.66 11.66 0 0 1 2.77-.78c1.12-.19 1.31.08 1.1 1.21a1 1 0 0 0 .13.28zm14 50.97l.15-.24-1.27-.54a49.54 49.54 0 0 1-13.07-7.68 28.66 28.66 0 0 1-7.68-9.67 15.2 15.2 0 0 1-1.58-8.84 23.29 23.29 0 0 1 3.05-8.52 37.44 37.44 0 0 1 7.26-8.7A70.4 70.4 0 0 1 44.2 5.77c.32-.16.63-.34.95-.51a1.72 1.72 0 0 0-1.07.16c-2.78 1.29-5.62 2.48-8.33 3.91a48 48 0 0 0-12.52 9.3 26.51 26.51 0 0 0-6.61 11c-1.92 6.75-.73 12.83 4.07 18a36.78 36.78 0 0 0 4.43 4 52.35 52.35 0 0 0 12.44 6.89c1.44.7 2.98 1.25 4.44 1.83zm58.5-55.27l-.06.2c.31.16.63.32.94.5 2.47 1.44 5 2.79 7.4 4.33a52 52 0 0 1 12.14 10.48 26.91 26.91 0 0 1 5.41 9.79 15.37 15.37 0 0 1 .5 7.73 20.46 20.46 0 0 1-2 5.29 30.88 30.88 0 0 1-9.22 10.17 52.07 52.07 0 0 1-11.08 6.06c-.36.15-.72.33-1.07.5a3.16 3.16 0 0 0 1.35-.26 62.56 62.56 0 0 0 14.88-7.54 27.93 27.93 0 0 0 7.19-7.15 16.75 16.75 0 0 0 2.91-9.18 22.08 22.08 0 0 0-2.56-10.63 32.51 32.51 0 0 0-8.51-10.11 63.84 63.84 0 0 0-17.54-10c-.18-.06-.46-.11-.68-.18zM27.71 58c-.12-.18-.14-.25-.19-.27l-1.19-.48A38.88 38.88 0 0 1 15.53 51a25 25 0 0 1-7.67-10.8 13.89 13.89 0 0 1-.38-8.22 26.56 26.56 0 0 1 5.61-10.49 52.38 52.38 0 0 1 11.54-10l.86-.6c-.1-.06-.14-.1-.16-.09a2.68 2.68 0 0 0-.49.21 59.45 59.45 0 0 0-12 8.54 30.68 30.68 0 0 0-5.9 7.15 16.66 16.66 0 0 0-.79 15.36 22.35 22.35 0 0 0 7.73 9.28 43.48 43.48 0 0 0 12.41 6.2zm92.51-47.25l-.1.14c.29.2.57.41.87.6a55.26 55.26 0 0 1 9.74 8 30.93 30.93 0 0 1 6.58 10 15.33 15.33 0 0 1-.49 12.87 27.1 27.1 0 0 1-8.72 10.13 40.22 40.22 0 0 1-8.66 4.67l-.5.19c-.15.08-.28.18-.42.27a.61.61 0 0 0 .47 0A45.07 45.07 0 0 0 130.74 52a23.84 23.84 0 0 0 7.88-8.34c2.8-5.29 3.16-10.69.43-16.14a26.38 26.38 0 0 0-4.64-6.4 56.45 56.45 0 0 0-13.81-10.25c-.12-.06-.25-.1-.38-.15z"/>
</svg>
