<svg xmlns="http://www.w3.org/2000/svg" viewBox="0 0 102.09 105.1">
  <path d="M37.93 23.93a2.41 2.41 0 0 1 2.2.51c1.4 1 2.78 2 4.19 3 6.44 4.45 13 8.73 19.59 12.93a26.63 26.63 0 0 0 14.46 4.14A37.51 37.51 0 0 0 88.74 43a53.92 53.92 0 0 0 12.68-5.5c1.92-1.3-.93-3.76-1-3.78L88.12 25 54.51 1.08c-3.4-2.42-5.29 0-5.29 0v-.07a121.38 121.38 0 0 1-16.09 13.54 137.23 137.23 0 0 1-18.24 10.82c-3.17 1.56-6.41 3-9.69 4.27h.08s-5.92 2.49-.72 6.14l60.83 42.7c.77.54.77.54.31 1.36a4.28 4.28 0 0 1-.26.38 1.79 1.79 0 0 1-1.59.73 2.82 2.82 0 0 1-1.51-.56c-1.37-1-2.73-2-4.11-2.94-6.47-4.5-13.07-8.79-19.71-13a26.51 26.51 0 0 0-13.24-4.12 34.75 34.75 0 0 0-8.57.74 49 49 0 0 0-9.78 3.17 55.78 55.78 0 0 0-6 3.14c-.75.58-1.67 1.74.26 3.11l47.58 33.82s2.34 1.77 3.83.08a2 2 0 0 1 .19-.16A116.23 116.23 0 0 1 64.25 94a137.09 137.09 0 0 1 26.22-16c3.16-1.47 6.39-2.78 9.66-4 0 0 .05-.06.1-.09 2.27-1.23.35-3.08.35-3.08l-4.92-3.46-58.75-41.16-.38-.27a.21.21 0 0 1-.09-.26 2.42 2.42 0 0 1 1.49-1.75z"/>
</svg>
