<svg id="Layer_1" data-name="Layer 1" xmlns="http://www.w3.org/2000/svg" viewBox="0 0 49 33.88"><title>SWMsvg</title><path d="M12.32,21.17a1.34,1.34,0,0,1,1.34,1.29h0a3.06,3.06,0,0,0,3.46-.09v-.43a2,2,0,0,0-2-2H9a2,2,0,0,0-2,2V23.8a2,2,0,0,0,1.23,1.92,12.63,12.63,0,0,0,3.58.43,1.35,1.35,0,1,1-1.35,1.4h0a3.06,3.06,0,0,0-3.46.08v.43a2,2,0,0,0,2,2h6.12a2,2,0,0,0,2-2V26.21a2,2,0,0,0-1.23-1.92,12.51,12.51,0,0,0-3.57-.43,1.35,1.35,0,1,1,0-2.69Z" transform="translate(-0.5 -8.06)"/><path d="M29,19.9h-.7a1,1,0,0,0-1,1v5.29a.78.78,0,1,1-1.55,0V20.93a1,1,0,0,0-1-1H24a1,1,0,0,0-1,1v5.29a.78.78,0,0,1-.62.78.77.77,0,0,1-.93-.76V20.93a1,1,0,0,0-1-1h-.7a1,1,0,0,0-1,1v8.14a1,1,0,0,0,1,1h2.87a1.8,1.8,0,1,1,3.59,0h2.87a1,1,0,0,0,1-1V20.93A1,1,0,0,0,29,19.9Z" transform="translate(-0.5 -8.06)"/><path d="M32.73,30.1h.7a1,1,0,0,0,1-1V23.78a.79.79,0,0,1,.62-.78.78.78,0,0,1,.94.76v5.31a1,1,0,0,0,1,1h.69a1,1,0,0,0,1-1V23.78a.78.78,0,1,1,1.55,0v5.31a1,1,0,0,0,1,1H42a1,1,0,0,0,1-1V20.93a1,1,0,0,0-1-1H39.18a1.8,1.8,0,1,1-3.59,0H32.72a1,1,0,0,0-1,1v8.14A1,1,0,0,0,32.73,30.1Z" transform="translate(-0.5 -8.06)"/><rect x="23.26" y="20.7" width="1.26" height="1.26"/><path d="M25,41.94C11.49,41.94.5,34.34.5,25S11.49,8.06,25,8.06,49.5,15.66,49.5,25,38.51,41.94,25,41.94ZM25,9.27C12.16,9.27,1.71,16.33,1.71,25S12.16,40.73,25,40.73,48.29,33.67,48.29,25,37.84,9.27,25,9.27Z" transform="translate(-0.5 -8.06)"/></svg>