<svg xmlns="http://www.w3.org/2000/svg" viewBox="0 0 142.69 90.96">
  <path d="M79.39 91H63.68a15 15 0 0 0-2.07-.44 92.79 92.79 0 0 1-23.9-4.9C26.38 81.71 16.1 76.09 8.28 66.74c-11.06-13.23-11-29.29 0-42.51C15.21 16 24.11 10.62 34 6.77 51.46 0 69.56-1.39 88 1.29c13.49 2 26.16 6.32 37.28 14.47 7 5.16 12.72 11.44 15.67 19.83.73 2.07 1.18 4.23 1.76 6.35v7.14c-.12.2-.33.38-.36.6-1.54 10.35-7.45 18-15.36 24.26-10.2 8.11-22 12.58-34.72 15-4.27.87-8.59 1.37-12.88 2.06zM76 86.47a80.11 80.11 0 0 0 22.65-4.06C109 78.92 118.38 73.75 125.32 65c5-6.35 7.51-13.54 6.49-21.71a29.86 29.86 0 0 0-7.43-16c-1.87 5.55-6 8.41-10.6 10.78-7 3.62-14.49 5.52-22.21 6.68-2 .3-2.8.82-3 3.13a152.31 152.31 0 0 1-2.26 18.84C84.89 73.94 82.36 80.88 76 86.47zM18.22 28c-5.28 6.71-8 14.11-6.69 22.59 1.37 9.21 6.65 16.11 13.78 21.7 10 7.83 21.61 11.74 34 13.49 2.18.3 4.39.42 6.78.64-10.68-12.07-11.54-26.55-12.17-41.05-4.16-.88-8.25-1.48-12.19-2.62-9.16-2.64-18.35-5.36-23.51-14.75zM88 33.9c6.58-1 12.82-2.37 18.5-5.52 2.85-1.59 5.84-3.38 5.8-7.17s-2.94-5.41-5.72-7C101.44 11.36 95.84 10 90.12 9c-3.91-.63-7.85-1-12.44-1.6 6.76 8.02 8.67 17.06 10.32 26.5zM64.32 7.51c-4 .51-8 .62-11.86 1.61a154.08 154.08 0 0 0-16.61 5.42c-2.83 1.09-5.31 3.18-5.45 6.59s2.26 5.09 4.73 6.6c6 3.65 12.66 5.08 19.61 6.16 1.56-9.38 3.49-18.41 9.58-26.38zm17.12 38.7H61.19c.47 7.67 1.2 15.12 5.2 21.75 3 4.89 7 4.9 9.9 0 3.97-6.63 4.79-14.06 5.15-21.75zm-19.8-11.48h19.14c.12-4.61-2.13-12.51-4.5-16.14-3.08-4.71-6.83-4.75-9.84 0s-4.01 10.24-4.8 16.14z"/>
</svg>
