<svg xmlns="http://www.w3.org/2000/svg" viewBox="0 0 132.05 132.05">
  <path d="M63.59 0h5.13a6.45 6.45 0 0 0 1 .21 63.22 63.22 0 0 1 30.49 9.34q25 15.43 30.87 44.32c.39 2 .67 3.92 1 5.87v12.83a7.71 7.71 0 0 0-.24.82c-.32 2-.54 4-.95 6a64.51 64.51 0 0 1-15.93 31.24A65 65 0 0 1 78.56 131c-2 .39-4 .69-6 1H59.74c-2.25-.38-4.52-.68-6.76-1.15A65.16 65.16 0 0 1 15.07 108 64.41 64.41 0 0 1 .48 73.13C.33 71.66.16 70.19 0 68.72v-5.13c.08-.45.17-.9.23-1.35.38-3.05.55-6.14 1.17-9.13A65 65 0 0 1 24.49 14.9 64.41 64.41 0 0 1 59.18.48zm2.53 6.12a60 60 0 1 0 60.09 60.74A60.1 60.1 0 0 0 66.12 6.12z"/>
  <path d="M91.28 26.65a45 45 0 0 1 9.35 7.83c.92 1 1.74 2.1 2.66 3.11a1.66 1.66 0 0 1 .24 2.07q-6 13.08-11.87 26.19c-3 6.76-6.11 13.51-9.26 20.5-.28-.57-.49-1-.67-1.36-2.4-5.32-4.81-10.64-7.16-16a1.68 1.68 0 0 0-1.8-1.2q-6.66.07-13.33 0a1.5 1.5 0 0 0-1.62 1.06C55.44 74.24 53 79.6 50.6 85l-.6 1.29c-.24-.46-.42-.76-.56-1.07l-20.6-45.56a1.81 1.81 0 0 1 .25-2.16 48.57 48.57 0 0 1 11.12-10.34c.24-.16.5-.3.85-.51 1.36 3 2.68 5.87 4 8.77Q51.49 49.7 57.9 64a1.29 1.29 0 0 0 1.41.91H72.9a1.57 1.57 0 0 0 1.68-1.13q8.06-18 16.17-36c.15-.39.32-.72.53-1.13zM45.29 107.94C26.93 99.29 14.88 77 21 54zM87 108l24.34-53.86C117.15 75.4 106.78 98.43 87 108z"/>
  <path d="M52.93 21.22a47.78 47.78 0 0 1 26.43 0C75 31 70.63 40.58 66.16 50.49L52.93 21.22zM66.15 82.31c4.41 9.78 8.67 19.23 12.92 28.69-6.51 2.53-18.69 2.64-25.87 0 4.27-9.43 8.54-18.89 12.95-28.69z"/>
</svg>
